<svg version="1.1" viewBox="0.0 0.0 1280.0 720.0" fill="none" stroke="none" stroke-linecap="square" stroke-miterlimit="10" xmlns:xlink="http://www.w3.org/1999/xlink" xmlns="http://www.w3.org/2000/svg"><clipPath id="g371ec481f26_0_0.0"><path d="m0 0l1280.0 0l0 720.0l-1280.0 0l0 -720.0z" clip-rule="nonzero"/></clipPath><g clip-path="url(#g371ec481f26_0_0.0)"><path fill="#ffffff" d="m0 0l1280.0 0l0 720.0l-1280.0 0z" fill-rule="evenodd"/><path fill="#d9ead3" d="m87.02712 365.09888l220.25195 0l0 157.73224l-220.25195 0z" fill-rule="evenodd"/><path stroke="#53585f" stroke-width="1.0" stroke-linejoin="round" stroke-linecap="butt" d="m87.02712 365.09888l220.25195 0l0 157.73224l-220.25195 0z" fill-rule="evenodd"/><path fill="#000000" d="m170.9551 423.285l0 -17.984375l3.671875 0l0 14.921875l9.09375 0l0 3.0625l-12.765625 0zm15.268311 0l0 -18.125l3.65625 0l0 18.125l-3.65625 0zm7.177597 0l0 -18.125l3.5625 0l7.421875 12.109375l0 -12.109375l3.40625 0l0 18.125l-3.671875 0l-7.3125 -11.828125l0 11.828125l-3.40625 0zm22.338043 0l0 -15.0625l-5.375 0l0 -3.0625l14.40625 0l0 3.0625l-5.375 0l0 15.0625l-3.65625 0z" fill-rule="nonzero"/><path fill="#000000" d="m205.89815 451.06625l-2.109375 2.6875q-1.546875 -0.75 -2.96875 -2.078125q-1.09375 0.984375 -2.34375 1.46875q-1.234375 0.46875 -2.9375 0.46875q-3.390625 0 -5.09375 -1.90625q-1.328125 -1.484375 -1.328125 -3.390625q0 -1.75 1.03125 -3.140625q1.046875 -1.390625 3.109375 -2.421875q-0.921875 -1.09375 -1.390625 -2.078125q-0.46875 -1.0 -0.46875 -1.890625q0 -1.65625 1.3125 -2.796875q1.3125 -1.140625 3.75 -1.140625q2.359375 0 3.671875 1.203125q1.328125 1.1875 1.328125 2.921875q0 1.109375 -0.65625 2.09375q-0.65625 0.984375 -2.640625 2.234375l2.515625 3.328125q0.453125 -0.78125 0.765625 -2.0625l3.140625 0.71875q-0.46875 1.671875 -0.8125 2.453125q-0.34375 0.765625 -0.734375 1.28125q0.578125 0.546875 1.5 1.203125q0.921875 0.640625 1.359375 0.84375zm-9.46875 -9.859375l0.9375 -0.703125q1.046875 -0.8125 1.046875 -1.609375q0 -0.65625 -0.5 -1.125q-0.5 -0.46875 -1.359375 -0.46875q-0.828125 0 -1.296875 0.421875q-0.46875 0.40625 -0.46875 0.9375q0 0.65625 0.78125 1.5625l0.859375 0.984375zm-1.359375 3.78125q-1.203125 0.609375 -1.796875 1.46875q-0.59375 0.84375 -0.59375 1.734375q0 1.125 0.734375 1.84375q0.734375 0.703125 1.984375 0.703125q0.8125 0 1.5625 -0.3125q0.75 -0.328125 1.640625 -1.078125l-3.53125 -4.359375z" fill-rule="nonzero"/><path fill="#000000" d="m170.70988 483.285l0 -15.0625l-5.375 0l0 -3.0625l14.40625 0l0 3.0625l-5.375 0l0 15.0625l-3.65625 0zm11.393311 0l0 -18.125l13.4375 0l0 3.0625l-9.78125 0l0 4.015625l9.109375 0l0 3.0625l-9.109375 0l0 4.921875l10.125 0l0 3.0625l-13.78125 0zm15.9717865 -5.90625l3.5625 -0.34375q0.3125 1.796875 1.296875 2.640625q0.984375 0.84375 2.65625 0.84375q1.765625 0 2.65625 -0.75q0.90625 -0.75 0.90625 -1.75q0 -0.640625 -0.390625 -1.09375q-0.375 -0.453125 -1.3125 -0.78125q-0.640625 -0.234375 -2.921875 -0.796875q-2.953125 -0.734375 -4.140625 -1.796875q-1.65625 -1.5 -1.65625 -3.640625q0 -1.390625 0.78125 -2.59375q0.78125 -1.203125 2.25 -1.828125q1.484375 -0.640625 3.578125 -0.640625q3.40625 0 5.125 1.5q1.734375 1.484375 1.828125 3.984375l-3.65625 0.171875q-0.25 -1.40625 -1.015625 -2.015625q-0.765625 -0.609375 -2.3125 -0.609375q-1.609375 0 -2.5 0.65625q-0.578125 0.421875 -0.578125 1.125q0 0.640625 0.53125 1.09375q0.703125 0.578125 3.375 1.21875q2.671875 0.625 3.9375 1.296875q1.28125 0.671875 2.0 1.84375q0.734375 1.171875 0.734375 2.890625q0 1.5625 -0.875 2.921875q-0.859375 1.359375 -2.4375 2.03125q-1.578125 0.65625 -3.953125 0.65625q-3.4375 0 -5.28125 -1.59375q-1.828125 -1.59375 -2.1875 -4.640625zm21.893661 5.90625l0 -15.0625l-5.375 0l0 -3.0625l14.40625 0l0 3.0625l-5.375 0l0 15.0625l-3.65625 0z" fill-rule="nonzero"/><path fill="#a2c4c9" d="m380.54242 365.09888l220.25195 0l0 157.73224l-220.25195 0z" fill-rule="evenodd"/><path stroke="#53585f" stroke-width="1.0" stroke-linejoin="round" stroke-linecap="butt" d="m380.54242 365.09888l220.25195 0l0 157.73224l-220.25195 0z" fill-rule="evenodd"/><path fill="#000000" d="m453.83682 435.16l7.25 0q2.140625 0 3.203125 0.1875q1.0625 0.171875 1.890625 0.734375q0.828125 0.5625 1.390625 1.515625q0.5625 0.953125 0.5625 2.125q0 1.265625 -0.6875 2.328125q-0.6875 1.0625 -1.859375 1.59375q1.65625 0.484375 2.546875 1.65625q0.890625 1.15625 0.890625 2.734375q0 1.234375 -0.578125 2.40625q-0.578125 1.15625 -1.578125 1.859375q-0.984375 0.703125 -2.453125 0.859375q-0.90625 0.09375 -4.40625 0.125l-6.171875 0l0 -18.125zm3.65625 3.015625l0 4.1875l2.40625 0q2.125 0 2.65625 -0.0625q0.9375 -0.109375 1.46875 -0.640625q0.546875 -0.546875 0.546875 -1.421875q0 -0.84375 -0.46875 -1.359375q-0.46875 -0.53125 -1.375 -0.640625q-0.546875 -0.0625 -3.125 -0.0625l-2.109375 0zm0 7.203125l0 4.84375l3.390625 0q1.984375 0 2.515625 -0.109375q0.8125 -0.140625 1.3125 -0.71875q0.515625 -0.578125 0.515625 -1.53125q0 -0.828125 -0.390625 -1.390625q-0.390625 -0.578125 -1.140625 -0.828125q-0.75 -0.265625 -3.25 -0.265625l-2.953125 0zm14.588043 -10.21875l3.671875 0l0 9.8125q0 2.34375 0.125 3.03125q0.234375 1.109375 1.125 1.796875q0.890625 0.671875 2.421875 0.671875q1.546875 0 2.34375 -0.640625q0.796875 -0.640625 0.953125 -1.5625q0.15625 -0.9375 0.15625 -3.078125l0 -10.03125l3.671875 0l0 9.515625q0 3.265625 -0.296875 4.625q-0.296875 1.34375 -1.09375 2.265625q-0.796875 0.921875 -2.140625 1.484375q-1.328125 0.546875 -3.484375 0.546875q-2.59375 0 -3.9375 -0.59375q-1.34375 -0.609375 -2.125 -1.5625q-0.78125 -0.96875 -1.03125 -2.015625q-0.359375 -1.5625 -0.359375 -4.59375l0 -9.671875zm18.213043 18.125l0 -18.125l3.65625 0l0 18.125l-3.65625 0zm7.2401123 0l0 -17.984375l3.671875 0l0 14.921875l9.09375 0l0 3.0625l-12.765625 0zm15.36203 -18.125l6.6875 0q2.265625 0 3.453125 0.34375q1.59375 0.46875 2.734375 1.671875q1.140625 1.1875 1.734375 2.9375q0.59375 1.734375 0.59375 4.28125q0 2.234375 -0.5625 3.859375q-0.671875 1.96875 -1.9375 3.203125q-0.953125 0.921875 -2.578125 1.4375q-1.203125 0.390625 -3.234375 0.390625l-6.890625 0l0 -18.125zm3.65625 3.0625l0 12.0l2.734375 0q1.53125 0 2.21875 -0.171875q0.890625 -0.21875 1.46875 -0.75q0.59375 -0.53125 0.96875 -1.75q0.375 -1.21875 0.375 -3.3125q0 -2.109375 -0.375 -3.234375q-0.375 -1.125 -1.046875 -1.75q-0.65625 -0.640625 -1.6875 -0.859375q-0.765625 -0.171875 -3.0 -0.171875l-1.65625 0z" fill-rule="nonzero"/><path fill="#a4c2f4" d="m674.05774 365.09888l220.25195 0l0 157.73224l-220.25195 0z" fill-rule="evenodd"/><path stroke="#53585f" stroke-width="1.0" stroke-linejoin="round" stroke-linecap="butt" d="m674.05774 365.09888l220.25195 0l0 157.73224l-220.25195 0z" fill-rule="evenodd"/><path fill="#000000" d="m757.7405 453.285l0 -15.0625l-5.375 0l0 -3.0625l14.40625 0l0 3.0625l-5.375 0l0 15.0625l-3.65625 0zm11.393311 0l0 -18.125l13.4375 0l0 3.0625l-9.78125 0l0 4.015625l9.109375 0l0 3.0625l-9.109375 0l0 4.921875l10.125 0l0 3.0625l-13.78125 0zm15.971802 -5.90625l3.5625 -0.34375q0.3125 1.796875 1.296875 2.640625q0.984375 0.84375 2.65625 0.84375q1.765625 0 2.65625 -0.75q0.90625 -0.75 0.90625 -1.75q0 -0.640625 -0.390625 -1.09375q-0.375 -0.453125 -1.3125 -0.78125q-0.640625 -0.234375 -2.921875 -0.796875q-2.953125 -0.734375 -4.140625 -1.796875q-1.65625 -1.5 -1.65625 -3.640625q0 -1.390625 0.78125 -2.59375q0.78125 -1.203125 2.25 -1.828125q1.484375 -0.640625 3.578125 -0.640625q3.40625 0 5.125 1.5q1.734375 1.484375 1.828125 3.984375l-3.65625 0.171875q-0.25 -1.40625 -1.015625 -2.015625q-0.765625 -0.609375 -2.3125 -0.609375q-1.609375 0 -2.5 0.65625q-0.578125 0.421875 -0.578125 1.125q0 0.640625 0.53125 1.09375q0.703125 0.578125 3.375 1.21875q2.671875 0.625 3.9375 1.296875q1.28125 0.671875 2.0 1.84375q0.734375 1.171875 0.734375 2.890625q0 1.5625 -0.875 2.921875q-0.859375 1.359375 -2.4375 2.03125q-1.578125 0.65625 -3.953125 0.65625q-3.4375 0 -5.28125 -1.59375q-1.828125 -1.59375 -2.1875 -4.640625zm21.893677 5.90625l0 -15.0625l-5.375 0l0 -3.0625l14.40625 0l0 3.0625l-5.375 0l0 15.0625l-3.65625 0z" fill-rule="nonzero"/><path fill="#6fa8dc" d="m967.57306 365.09888l220.25201 0l0 157.73224l-220.25201 0z" fill-rule="evenodd"/><path stroke="#53585f" stroke-width="1.0" stroke-linejoin="round" stroke-linecap="butt" d="m967.57306 365.09888l220.25201 0l0 157.73224l-220.25201 0z" fill-rule="evenodd"/><path fill="#000000" d="m1027.4548 435.16l6.6875 0q2.265625 0 3.453125 0.34375q1.59375 0.46875 2.734375 1.671875q1.140625 1.1875 1.734375 2.9375q0.59375 1.734375 0.59375 4.28125q0 2.234375 -0.5625 3.859375q-0.671875 1.96875 -1.9375 3.203125q-0.953125 0.921875 -2.578125 1.4375q-1.203125 0.390625 -3.234375 0.390625l-6.890625 0l0 -18.125zm3.65625 3.0625l0 12.0l2.734375 0q1.53125 0 2.21875 -0.171875q0.890625 -0.21875 1.46875 -0.75q0.59375 -0.53125 0.96875 -1.75q0.375 -1.21875 0.375 -3.3125q0 -2.109375 -0.375 -3.234375q-0.375 -1.125 -1.046875 -1.75q-0.65625 -0.640625 -1.6875 -0.859375q-0.765625 -0.171875 -3.0 -0.171875l-1.65625 0zm14.650513 15.0625l0 -18.125l13.4375 0l0 3.0625l-9.78125 0l0 4.015625l9.109375 0l0 3.0625l-9.109375 0l0 4.921875l10.125 0l0 3.0625l-13.78125 0zm16.893677 0l0 -18.125l5.875 0q3.34375 0 4.359375 0.265625q1.546875 0.40625 2.59375 1.78125q1.0625 1.359375 1.0625 3.53125q0 1.65625 -0.609375 2.796875q-0.609375 1.140625 -1.546875 1.796875q-0.921875 0.640625 -1.890625 0.859375q-1.3125 0.25 -3.796875 0.25l-2.390625 0l0 6.84375l-3.65625 0zm3.65625 -15.0625l0 5.140625l2.0 0q2.171875 0 2.890625 -0.28125q0.734375 -0.28125 1.140625 -0.890625q0.421875 -0.609375 0.421875 -1.40625q0 -1.0 -0.578125 -1.640625q-0.578125 -0.640625 -1.46875 -0.796875q-0.65625 -0.125 -2.640625 -0.125l-1.765625 0zm13.331177 15.0625l0 -17.984375l3.671875 0l0 14.921875l9.09375 0l0 3.0625l-12.765625 0zm14.627686 -8.953125q0 -2.765625 0.828125 -4.65625q0.625 -1.375 1.6875 -2.46875q1.078125 -1.109375 2.359375 -1.640625q1.6875 -0.71875 3.90625 -0.71875q4.0 0 6.40625 2.484375q2.40625 2.484375 2.40625 6.90625q0 4.390625 -2.390625 6.875q-2.390625 2.484375 -6.375 2.484375q-4.046875 0 -6.4375 -2.46875q-2.390625 -2.46875 -2.390625 -6.796875zm3.78125 -0.125q0 3.078125 1.421875 4.671875q1.421875 1.59375 3.609375 1.59375q2.1875 0 3.59375 -1.578125q1.40625 -1.578125 1.40625 -4.734375q0 -3.125 -1.375 -4.65625q-1.359375 -1.53125 -3.625 -1.53125q-2.265625 0 -3.65625 1.5625q-1.375 1.546875 -1.375 4.671875zm21.435425 9.078125l0 -7.625l-6.640625 -10.5l4.28125 0l4.265625 7.171875l4.1875 -7.171875l4.21875 0l-6.671875 10.515625l0 7.609375l-3.640625 0z" fill-rule="nonzero"/><path fill="#ffe599" d="m113.5538 104.86033l163.29926 0l0 102.51139c-81.64525 0 -81.64525 39.441193 -163.29926 19.720596zm13.453857 0l0 -13.28997l162.18393 0l0 103.15445c-6.1648865 0 -12.3385315 0.7145233 -12.3385315 0.7145233l0 -90.579zm12.64592 -13.28997l0 -12.968437l163.58904 0l0 102.832924c-7.0255127 0 -14.051025 0.5358887 -14.051025 0.5358887l0 -90.400375z" fill-rule="evenodd"/><path fill="#000000" fill-opacity="0.0" d="m113.5538 104.86033l163.29926 0l0 102.51139c-81.64525 0 -81.64525 39.441193 -163.29926 19.720596zm13.453857 0l0 -13.28997l162.18393 0l0 103.15445c-6.1648865 0 -12.3385315 0.7145233 -12.3385315 0.7145233m-137.19948 -103.86897l0 -12.968437l163.58904 0l0 102.832924c-7.0255127 0 -14.051025 0.5358887 -14.051025 0.5358887" fill-rule="evenodd"/><path fill="#000000" fill-opacity="0.0" d="m113.5538 227.09232c81.65401 19.720596 81.65401 -19.720596 163.29926 -19.720596l0 -11.932388c0 0 6.173645 -0.7145233 12.3385315 -0.7145233l0 -12.754074c0 0 7.0255127 -0.5358887 14.051025 -0.5358887l0 -102.832924l-163.58904 0l0 12.968437l-12.64592 0l0 13.28997l-13.453857 0z" fill-rule="evenodd"/><path stroke="#53585f" stroke-width="1.0" stroke-linejoin="round" stroke-linecap="butt" d="m113.5538 104.86033l163.29926 0l0 102.51139c-81.64525 0 -81.64525 39.441193 -163.29926 19.720596zm13.453857 0l0 -13.28997l162.18393 0l0 103.15445c-6.1648865 0 -12.3385315 0.7145233 -12.3385315 0.7145233m-137.19948 -103.86897l0 -12.968437l163.58904 0l0 102.832924c-7.0255127 0 -14.051025 0.5358887 -14.051025 0.5358887" fill-rule="evenodd"/><path fill="#000000" d="m161.86235 175.29633l0 -18.125l5.875 0q3.34375 0 4.359375 0.265625q1.546875 0.40625 2.59375 1.78125q1.0625 1.359375 1.0625 3.53125q0 1.65625 -0.609375 2.796875q-0.609375 1.140625 -1.546875 1.796875q-0.921875 0.640625 -1.890625 0.859375q-1.3125 0.25 -3.796875 0.25l-2.390625 0l0 6.84375l-3.65625 0zm3.65625 -15.0625l0 5.140625l2.0 0q2.171875 0 2.890625 -0.28125q0.734375 -0.28125 1.140625 -0.890625q0.421875 -0.609375 0.421875 -1.40625q0 -1.0 -0.578125 -1.640625q-0.578125 -0.640625 -1.46875 -0.796875q-0.65625 -0.125 -2.640625 -0.125l-1.765625 0zm13.2061615 -3.0625l3.671875 0l0 9.8125q0 2.34375 0.125 3.03125q0.234375 1.109375 1.125 1.796875q0.890625 0.671875 2.421875 0.671875q1.546875 0 2.34375 -0.640625q0.796875 -0.640625 0.953125 -1.5625q0.15625 -0.9375 0.15625 -3.078125l0 -10.03125l3.671875 0l0 9.515625q0 3.265625 -0.296875 4.625q-0.296875 1.34375 -1.09375 2.265625q-0.796875 0.921875 -2.140625 1.484375q-1.328125 0.546875 -3.484375 0.546875q-2.59375 0 -3.9375 -0.59375q-1.34375 -0.609375 -2.125 -1.5625q-0.78125 -0.96875 -1.03125 -2.015625q-0.359375 -1.5625 -0.359375 -4.59375l0 -9.671875zm17.400543 12.21875l3.5625 -0.34375q0.3125 1.796875 1.296875 2.640625q0.984375 0.84375 2.65625 0.84375q1.765625 0 2.65625 -0.75q0.90625 -0.75 0.90625 -1.75q0 -0.640625 -0.390625 -1.09375q-0.375 -0.453125 -1.3125 -0.78125q-0.640625 -0.234375 -2.921875 -0.796875q-2.953125 -0.734375 -4.140625 -1.796875q-1.65625 -1.5 -1.65625 -3.640625q0 -1.390625 0.78125 -2.59375q0.78125 -1.203125 2.25 -1.828125q1.484375 -0.640625 3.578125 -0.640625q3.40625 0 5.125 1.5q1.734375 1.484375 1.828125 3.984375l-3.65625 0.171875q-0.25 -1.40625 -1.015625 -2.015625q-0.765625 -0.609375 -2.3125 -0.609375q-1.609375 0 -2.5 0.65625q-0.578125 0.421875 -0.578125 1.125q0 0.640625 0.53125 1.09375q0.703125 0.578125 3.375 1.21875q2.671875 0.625 3.9375 1.296875q1.28125 0.671875 2.0 1.84375q0.734375 1.171875 0.734375 2.890625q0 1.5625 -0.875 2.921875q-0.859375 1.359375 -2.4375 2.03125q-1.578125 0.65625 -3.953125 0.65625q-3.4375 0 -5.28125 -1.59375q-1.828125 -1.59375 -2.1875 -4.640625zm17.831161 5.90625l0 -18.125l3.65625 0l0 7.125l7.171875 0l0 -7.125l3.65625 0l0 18.125l-3.65625 0l0 -7.921875l-7.171875 0l0 7.921875l-3.65625 0z" fill-rule="nonzero"/><path fill="#000000" fill-opacity="0.0" d="m307.27908 443.965l73.25986 0" fill-rule="evenodd"/><path stroke="#53585f" stroke-width="4.0" stroke-linejoin="round" stroke-linecap="butt" d="m307.27908 443.96503l49.259827 0" fill-rule="evenodd"/><path fill="#53585f" stroke="#53585f" stroke-width="4.0" stroke-linecap="butt" d="m356.5389 450.57196l18.152405 -6.6069336l-18.152405 -6.6069336z" fill-rule="evenodd"/><path fill="#000000" fill-opacity="0.0" d="m600.7944 443.965l73.25989 0" fill-rule="evenodd"/><path stroke="#53585f" stroke-width="4.0" stroke-linejoin="round" stroke-linecap="butt" d="m600.79443 443.96503l49.259827 0" fill-rule="evenodd"/><path fill="#53585f" stroke="#53585f" stroke-width="4.0" stroke-linecap="butt" d="m650.05426 450.57196l18.152405 -6.6069336l-18.152405 -6.6069336z" fill-rule="evenodd"/><path fill="#000000" fill-opacity="0.0" d="m894.3097 443.965l73.25989 0" fill-rule="evenodd"/><path stroke="#53585f" stroke-width="4.0" stroke-linejoin="round" stroke-linecap="butt" d="m894.3097 443.96503l49.259888 0" fill-rule="evenodd"/><path fill="#53585f" stroke="#53585f" stroke-width="4.0" stroke-linecap="butt" d="m943.5696 450.57196l18.152344 -6.6069336l-18.152344 -6.6069336z" fill-rule="evenodd"/><path fill="#00882b" d="m973.47156 140.14174l163.52759 0l0 134.83464l-163.52759 0z" fill-rule="evenodd"/><path fill="#006c22" d="m1136.9991 140.14174l44.944824 -44.944885l0 134.83464l-44.944824 44.944885z" fill-rule="evenodd"/><path fill="#339f55" d="m973.47156 140.14174l44.944885 -44.944885l163.52753 0l-44.944824 44.944885z" fill-rule="evenodd"/><path fill="#000000" fill-opacity="0.0" d="m973.47156 140.14174l44.944885 -44.944885l163.52753 0l0 134.83464l-44.944824 44.944885l-163.52759 0zm0 0l163.52759 0l44.944824 -44.944885m-44.944824 44.944885l0 134.83464" fill-rule="evenodd"/><path stroke="#53585f" stroke-width="1.0" stroke-linejoin="round" stroke-linecap="butt" d="m973.47156 140.14174l44.944885 -44.944885l163.52753 0l0 134.83464l-44.944824 44.944885l-163.52759 0zm0 0l163.52759 0l44.944824 -44.944885m-44.944824 44.944885l0 134.83464" fill-rule="evenodd"/><path fill="#000000" d="m1010.03735 216.87906l0 -15.0625l-5.375 0l0 -3.0625l14.40625 0l0 3.0625l-5.375 0l0 15.0625l-3.65625 0zm25.856934 0l-3.984375 0l-1.578125 -4.125l-7.250061 0l-1.484375 4.125l-3.890625 0l7.062561 -18.125l3.875 0l7.25 18.125zm-6.734375 -7.171875l-2.5 -6.734375l-2.453125 6.734375l4.953125 0zm8.697388 7.171875l0 -18.125l7.703125 0q2.90625 0 4.21875 0.484375q1.3125 0.484375 2.109375 1.734375q0.796875 1.25 0.796875 2.859375q0 2.046875 -1.203125 3.375q-1.203125 1.328125 -3.59375 1.671875q1.1875 0.6875 1.953125 1.515625q0.78125 0.828125 2.09375 2.953125l2.21875 3.53125l-4.375 0l-2.65625 -3.9375q-1.40625 -2.125 -1.921875 -2.671875q-0.515625 -0.546875 -1.109375 -0.75q-0.578125 -0.203125 -1.828125 -0.203125l-0.75 0l0 7.5625l-3.65625 0zm3.65625 -10.46875l2.703125 0q2.640625 0 3.296875 -0.21875q0.65625 -0.21875 1.015625 -0.765625q0.375 -0.546875 0.375 -1.359375q0 -0.921875 -0.484375 -1.484375q-0.484375 -0.5625 -1.375 -0.703125q-0.453125 -0.0625 -2.671875 -0.0625l-2.859375 0l0 4.59375zm23.056763 3.796875l0 -3.046875l7.890625 0l0 7.21875q-1.15625 1.109375 -3.34375 1.96875q-2.171875 0.84375 -4.421875 0.84375q-2.84375 0 -4.953125 -1.1875q-2.109375 -1.203125 -3.171875 -3.421875q-1.0625 -2.21875 -1.0625 -4.828125q0 -2.828125 1.1875 -5.03125q1.1875 -2.203125 3.46875 -3.375q1.75 -0.90625 4.34375 -0.90625q3.375 0 5.265625 1.421875q1.90625 1.40625 2.453125 3.90625l-3.640625 0.6875q-0.390625 -1.34375 -1.453125 -2.109375q-1.046875 -0.78125 -2.625 -0.78125q-2.40625 0 -3.828125 1.53125q-1.40625 1.515625 -1.40625 4.5q0 3.234375 1.4375 4.859375q1.4375 1.609375 3.75 1.609375q1.15625 0 2.3125 -0.453125q1.15625 -0.453125 1.984375 -1.09375l0 -2.3125l-4.1875 0zm11.26355 6.671875l0 -18.125l13.4375 0l0 3.0625l-9.78125 0l0 4.015625l9.109375 0l0 3.0625l-9.109375 0l0 4.921875l10.125 0l0 3.0625l-13.78125 0zm20.971802 0l0 -15.0625l-5.375 0l0 -3.0625l14.40625 0l0 3.0625l-5.375 0l0 15.0625l-3.65625 0z" fill-rule="nonzero"/><path fill="#000000" fill-opacity="0.0" d="m195.20781 227.09232l1.9527588 138.01575" fill-rule="evenodd"/><path stroke="#53585f" stroke-width="4.0" stroke-linejoin="round" stroke-linecap="butt" d="m195.20782 227.09232l1.613205 114.01816" fill-rule="evenodd"/><path fill="#53585f" stroke="#53585f" stroke-width="4.0" stroke-linecap="butt" d="m190.21477 341.20395l6.863083 18.057098l6.349457 -18.24405z" fill-rule="evenodd"/><path fill="#000000" fill-opacity="0.0" d="m1077.6991 365.09888l-1.3858643 -90.86615" fill-rule="evenodd"/><path stroke="#53585f" stroke-width="4.0" stroke-linejoin="round" stroke-linecap="butt" d="m1077.6991 365.09888l-1.0198975 -66.86896" fill-rule="evenodd"/><path fill="#53585f" stroke="#53585f" stroke-width="4.0" stroke-linecap="butt" d="m1083.2854 298.12918l-6.8829346 -18.04953l-6.3293457 18.251038z" fill-rule="evenodd"/></g></svg>